<?xml version="1.0" encoding="iso-8859-1"?>
<!-- Generator: Adobe Illustrator 17.1.0, SVG Export Plug-In . SVG Version: 6.00 Build 0)  -->
<!DOCTYPE svg PUBLIC "-//W3C//DTD SVG 1.1//EN" "http://www.w3.org/Graphics/SVG/1.1/DTD/svg11.dtd">
<svg version="1.1" id="Capa_1" xmlns="http://www.w3.org/2000/svg" xmlns:xlink="http://www.w3.org/1999/xlink" x="0px"
  y="0px" viewBox="0 0 317.17 317.17" style="enable-background:new 0 0 317.17 317.17;" xml:space="preserve">
  <g>
    <path d="M260.153,107.248c0.012-0.524,0.018-1.042,0.018-1.555c0-46.565-37.884-84.449-84.448-84.449
		c-44.264,0-80.683,34.232-84.175,77.612c-7.93-3.252-16.444-4.938-25.145-4.938C29.788,93.918,0,123.707,0,160.322
		s29.788,66.404,66.403,66.404c4.143,0,7.5-3.357,7.5-7.5s-3.357-7.5-7.5-7.5C38.06,211.727,15,188.667,15,160.322
		s23.06-51.404,51.403-51.404c10.183,0,20.034,2.983,28.489,8.628c2.383,1.59,5.462,1.684,7.936,0.244
		c2.476-1.44,3.914-4.164,3.709-7.021l-0.038-0.534c-0.116-1.593-0.226-3.098-0.226-4.542c0-38.295,31.155-69.449,69.449-69.449
		s69.448,31.154,69.448,69.449c0,2.504-0.18,5.227-0.55,8.326c-0.269,2.247,0.493,4.496,2.071,6.118
		c1.58,1.623,3.807,2.443,6.06,2.239c1.602-0.146,2.927-0.215,4.171-0.215c24.949,0,45.247,20.298,45.247,45.247
		c0,24.95-20.298,45.248-45.247,45.248c-4.143,0-7.5,3.357-7.5,7.5s3.357,7.5,7.5,7.5c33.221,0,60.247-27.027,60.247-60.248
		C317.17,135.271,291.879,108.931,260.153,107.248z" />
    <path d="M161.308,144.389c-41.779,0-75.769,33.989-75.769,75.769s33.989,75.769,75.769,75.769s75.769-33.989,75.769-75.769
		S203.087,144.389,161.308,144.389z M161.308,280.926c-33.508,0-60.769-27.261-60.769-60.769s27.261-60.769,60.769-60.769
		s60.769,27.261,60.769,60.769S194.815,280.926,161.308,280.926z" />
    <path d="M150.552,210.909c0.218,0.019,0.434,0.027,0.647,0.027c3.853,0,7.13-2.952,7.464-6.861
		c0.345-4.033-2.572-7.583-6.555-8.073c8.69-3.323,18.896-1.843,26.349,4.724c3.109,2.739,7.848,2.438,10.586-0.67
		c2.738-3.108,2.438-7.848-0.67-10.586c-12.922-11.383-31.078-13.093-45.566-5.719c-0.413-3.457-3.203-6.266-6.808-6.574
		c-4.15-0.357-7.759,2.707-8.111,6.834l-1.479,17.309c-0.353,4.128,2.707,7.759,6.834,8.111L150.552,210.909z" />
    <path d="M189.402,230.443l-17.319-1.354c-4.125-0.317-7.739,2.763-8.063,6.893c-0.316,4.047,2.644,7.585,6.647,8.031
		c-2.418,0.949-4.992,1.539-7.657,1.726c-6.882,0.489-13.548-1.74-18.76-6.267c-3.126-2.714-7.863-2.382-10.581,0.745
		c-2.716,3.128-2.382,7.865,0.745,10.581c7.496,6.509,16.889,10.007,26.719,10.007c0.974,0,1.951-0.034,2.932-0.104
		c5.666-0.399,11.068-1.944,15.96-4.486c0.448,3.442,3.252,6.22,6.851,6.502c0.199,0.016,0.396,0.022,0.593,0.022
		c3.877,0,7.162-2.984,7.47-6.915l1.355-17.318c0.155-1.982-0.484-3.946-1.776-5.458
		C193.226,231.535,191.386,230.599,189.402,230.443z" />
  </g>
</svg>
